<svg id="Layer_1" data-name="Layer 1" xmlns="http://www.w3.org/2000/svg" xmlns:xlink="http://www.w3.org/1999/xlink" viewBox="0 0 57.23 14.38"><defs><style>.cls-1{fill:none;}.cls-2{clip-path:url(#clip-path);}.cls-3{fill:#ff602a;}.cls-4{fill:#fff574;}.cls-5{fill:#ff2a2a;}.cls-6{fill:#9f7d00;}.cls-7{fill:#ffc835;}.cls-8{fill:#c92d00;}.cls-9{fill:#ffc40a;}.cls-10{fill:#f45900;}.cls-11{fill:#f40600;}</style><clipPath id="clip-path"><path class="cls-1" d="M4.36.76H8.14L9.5,8l2-7.21h3.77l2,7.2L18.62.76h3.76L19.54,13.64h-3.9L13.38,5.53l-2.25,8.11H7.22ZM22,9a4.65,4.65,0,0,1,1.45-3.52A5.39,5.39,0,0,1,27.3,4.1a5.37,5.37,0,0,1,4.24,1.62A4.77,4.77,0,0,1,32.69,9a4.71,4.71,0,0,1-1.43,3.53,5.48,5.48,0,0,1-4,1.37,5.54,5.54,0,0,1-3.64-1.14A4.58,4.58,0,0,1,22,9Zm3.59,0a2.82,2.82,0,0,0,.51,1.85,1.57,1.57,0,0,0,1.27.59,1.61,1.61,0,0,0,1.27-.58A3,3,0,0,0,29.09,9a2.79,2.79,0,0,0-.5-1.81,1.54,1.54,0,0,0-1.24-.59,1.62,1.62,0,0,0-1.29.6A2.78,2.78,0,0,0,25.55,9Zm8.32-4.68h3.35V5.84a3.51,3.51,0,0,1,1-1.37,2.08,2.08,0,0,1,1.27-.37,3.78,3.78,0,0,1,1.73.49L40.11,7.14a2.77,2.77,0,0,0-1-.27A1.25,1.25,0,0,0,38,7.45a5.9,5.9,0,0,0-.56,3.06v3.13H33.87Zm8-3.55H45.5V7.41l2.67-3.1h4.41L49.23,7.58l3.54,6.06h-4L46.85,9.9,45.5,11.22v2.42H41.84Z"/></clipPath></defs><title>Work</title><g class="cls-2"><circle class="cls-3" cx="14.46" cy="-0.66" r="10.02"/><circle class="cls-4" cx="0.95" cy="-0.81" r="10.02"/><circle class="cls-5" cx="41.47" cy="-0.66" r="10.02"/><circle class="cls-6" cx="27.96" cy="-0.81" r="10.02"/><circle class="cls-7" cx="54.98" cy="-0.37" r="10.02"/><circle class="cls-8" cx="14.61" cy="13.85" r="10.02"/><circle class="cls-9" cx="1.1" cy="13.7" r="10.02"/><circle class="cls-10" cx="41.62" cy="13.85" r="10.02"/><circle class="cls-11" cx="28.11" cy="13.7" r="10.02"/><circle class="cls-6" cx="55.12" cy="14.14" r="10.02"/></g></svg>